<?xml version="1.0" encoding="UTF-8"?><svg id="Layer_2" xmlns="http://www.w3.org/2000/svg" viewBox="0 0 1475.54 1613.45"><defs><style>.cls-1{fill:#fff;}</style></defs><g id="Layer_1-2"><g><path d="M679.39,555.08c-10.63,.79-21.44,1.59-33.72,2.5,1.21,9.37,2.11,18.14,3.49,26.83,6.39,40.19,6.81,80.23-3.09,119.95-7.17,28.78-19.02,55.33-39.06,77.69-2,2.23-4.19,4.28-6.29,6.42-2.58,2.64-5.25,3.34-8.95,1.78-5.91-2.49-9.01-4.24-13.94-9.83,1.87-2.14,3.74-4.39,5.73-6.53,26.57-28.53,41.41-62.19,45.07-101.04,3.45-36.7,.86-73.15-3.02-109.61-.17-1.62-.38-3.24-.67-5.69,4.02-.75,7.69-1.43,11.84-2.19-.91-1.23-1.33-2.16-2.04-2.72-112.42-88.06-223.75-177.43-329.41-276.13-1.86,8.82-7.35,7.16-12.05,7.16-72.93-.02-145.86-.08-218.79-.13-13.27,0-26.55,0-40.36,0-3.35,8.7-6.51,16.89-10.07,26.11H302.14c.51-1.97,.99-3.83,1.6-6.21,1.31,.43,2.74,.52,3.63,1.25,12.51,10.46,24.93,21.04,37.41,31.54,82.81,69.65,165.62,139.28,248.43,208.93,2.42,2.04,4.71,4.24,6.46,8.22-11.11,0-22.24,.36-33.32-.25-2.84-.15-5.74-3.06-8.24-5.16-41.1-34.41-82.15-68.87-123.19-103.35-39.77-33.41-79.51-66.84-119.25-100.28q-11.54-9.71-13.72-24.09H21.58c-1.19,3.45-2.69,7.38-3.9,11.41-1.13,3.77-1.94,7.64-3.18,12.6,96.71,.41,192.49,.81,286.84,1.2,3.64,4.45,5.92,8.07,8.97,10.84,37.19,33.83,74.53,67.5,111.76,101.28,25.15,22.82,50.12,45.85,75.33,68.6,9.88,8.92,20.21,17.35,30.31,26.03,2.46,2.11,4.83,4.33,7.81,7.01-3.09,1.29-5.46,2.28-6.9,2.88-4.91,18.1-8.93,35.62-14.44,52.65-11.14,34.38-33.59,59.15-66.19,74.81-31.04,14.92-63.33,25.91-97.43,31.14-11.55,1.77-22.97,1.26-33.63-4.73-2.7-1.52-6.07-1.83-9.27-2.73,.22-4.43,5.29-6.17,3.41-11.24-.79-2.12,4.89-4.1,8.81-4.43,23.6-1.95,46.78-6.27,69.18-14.06,12.86-4.47,25.45-9.69,38.16-14.59,36.06-13.91,55.84-41.51,65.18-77.79,1.9-7.4,2.96-15.03,5.07-22.36,1.81-6.26,.24-10.29-4.75-14.63-29.16-25.32-58.16-50.84-86.88-76.66-30.46-27.38-60.54-55.17-90.8-82.76-2.93-2.68-5.94-5.27-7.56-6.7-4.86,1.19-8.29,2.77-11.73,2.77-55.94,.08-111.89-.04-167.83-.1-36.63-.04-73.26-.07-109.89-.1-3.59,0-7.18,0-12.03,0-.58,8.74-1.1,16.49-1.67,25.08,4.2,.2,7.42,.49,10.63,.49,91.91-.04,183.82,.03,275.73-.42,8.4-.04,14.48,2.52,20.37,7.72,34.44,30.4,68.96,60.72,103.43,91.08,10.99,9.68,21.95,19.41,32.9,29.14,2.45,2.17,4.79,4.46,7.02,6.55-8.42,27.57-23.89,48.45-49.32,61.79-27.58,14.48-57.23,22.77-86.24,31.37-7.18-7.34-6.66-15.72-6.19-24.9,1.88-.82,4.17-1.98,6.57-2.84,18.13-6.51,36.47-12.5,54.35-19.64,9.49-3.79,18.54-9.01,27.15-14.58,10.29-6.67,17.41-16.28,21.88-29.03-7.2-6.79-14.44-14.03-22.12-20.78-29.74-26.16-59.5-52.31-89.57-78.09-5.58-4.78-8.72-9.6-7.84-16.97,.38-3.2,.06-6.48,.06-10.25H5.69c-2.27,6.57-2.39,11.34-.5,25.2H303.83c-.18,3.49-.31,5.97-.5,9.84H4.83c1.23,9,2.25,16.47,3.4,24.92,3.99,0,7.24,0,10.49,0,91.24,.26,182.49,.52,273.73,.79,.67,0,1.41,.2,1.99-.02,10.15-3.91,16.53,2.18,23.47,8.14,20.7,17.79,41.74,35.2,62.62,52.78,2.27,1.91,4.41,3.97,7.51,6.79-3.41,3.9-6.06,8.29-9.88,11.02-8.07,5.78-16.29,11.72-25.28,15.74-16.53,7.4-33.62,13.56-50.58,19.96-2.66,1-5.89,.71-8.85,.71-77.59,.02-155.18,0-232.77,0-1.99,0-3.98,0-7.62,0,4.16,9.14,9.43,16.56,14.74,23.9,.75,1.04,2.92,1.33,4.48,1.47,2.64,.24,5.32,.09,7.99,.09,70.26,0,140.53-.02,210.79-.03,3.64,0,7.29,0,11.85,0,.24,3.12,.45,5.86,.74,9.62H75.99c5.38,10.14,11.85,17.54,18.9,24.25,1.9,1.81,6.28,1.37,9.52,1.38,51.28,.09,102.57,.08,153.85,.11,10.99,0,21.98,0,32.97,.07,3.61,.03,7.21,.31,11.14,.49v9.4H106.79c-.35,.75-.7,1.51-1.04,2.26,7.27,7.06,14.24,14.48,21.99,20.96,2.35,1.97,6.85,1.88,10.37,1.89,50.95,.06,101.9-.03,152.85-.08,3.6,0,7.2,0,11.33,0,.34,3.32,.6,5.82,.98,9.54H141c5.02,5.8,9.62,8.3,13.34,11.73,12.64,11.64,27.01,15.84,44.47,15.1,30.58-1.31,61.26-.32,91.89-.29,3.59,0,7.18,0,11.29,0v9.2h-106.85l-.77,1.66c1.9,1.28,3.69,2.79,5.72,3.81,29.43,14.79,60.79,21.09,93.54,20.61,6.27-.09,10.22,2.09,13.44,7.24-1.04,.88-1.75,1.99-2.46,2-32.88,.09-65.76,.07-98.51,.07-4.09-6.84,1.42-15.41-3.94-21.26-.89,.04-1.78,.09-2.67,.13-.46,6.67-.91,13.35-1.42,20.73h-20.97c-.79-11.98-1.53-23.69-2.43-35.38-.03-.43-1.65-.73-3.65-1.56-.61,12.6-1.19,24.61-1.79,37.17h-21.39c-.25-2.73-.72-5.6-.74-8.47-.07-12.99,0-25.97,0-38.96,0-4.32,.22-8.81-6.88-10.83v58.52h-23.7c-.24-1.17-.85-2.7-.81-4.21,.55-20.97,.66-41.97,2.07-62.89,.6-8.98-2.89-14.19-11.2-19.88-1,29.91-1.95,58.29-2.91,87.19h-23.36c0-3.84-.07-7.39,.01-10.95,.67-30.29,1.2-60.59,2.18-90.87,.19-5.91-2.27-9.55-5.68-13.99-9.55-12.44-23.45-11.72-36.54-13.51-12.8-1.75-25.68-2.92-39.13-4.41v-23.99c14.6,.86,28.73,1.69,43.28,2.55,.26-7.03-3.92-7.83-8.84-8.15-11.23-.72-22.45-1.64-34.37-2.52v-24.47c7.7,.37,14.89,.72,23.74,1.15-1.88-4.42-3.34-7.84-4.93-11.56-6.09-.54-11.98-1.07-18.43-1.65-1.99-7.34-1.11-14.48-.77-21.89,2.54-.52,4.71-.96,8.15-1.67-1.84-3.5-2.72-7.44-5.18-9.28-2.59-1.94-3.49-3.78-3.29-6.49,.5-6.87,1.22-13.72,1.77-20.59,.15-1.95,.17-3.95-.07-5.88-.52-4.22-1.71-8.4-1.8-12.61-.32-15.8-.51-31.6-.37-47.4,.15-16.5,.87-33,1.06-49.5,.09-7.3-.76-14.61-.69-21.91,.04-4.57,1.23-9.11,1.49-13.69,.17-2.89-.54-5.81-.65-8.73-.3-7.93-.77-15.86-.54-23.78,.06-2.23,2.31-4.39,3.65-6.74-6.86-8.45-2.88-18.11-3.59-28.33,4.74,.21,8.88,.39,13.8,.6,.89-2.41,1.87-5.06,3.05-8.24-5.98-1.03-11.11-1.91-16.62-2.86v-24.4c6.47,.95,12.52,1.95,18.61,2.7,6.66,.83,6.67,.73,9.61-7.92-9.28-.99-18.34-1.96-28.01-2.99v-26.38c13.49,2.23,26.49,4.37,39.93,6.6,2.15-3.98,3.98-7.35,6.54-12.07-16.26-2.19-31.2-4.2-46.48-6.25v-24.66c16.46,2.36,32.2,4.61,47.94,6.88,.66,.09,1.29,.36,1.94,.47,10.39,1.74,10.49,1.68,16.58-9.46-22.35-2.5-44.25-4.96-66.63-7.47V.76H24.31c-.64,43.58-3.13,87.26-4.16,131.62,3.1,.58,5.59,1.32,8.1,1.46,16.28,.88,32.58,1.57,48.86,2.44,7.97,.43,15.98,.73,23.89,1.78,8.54,1.13,14.75-1.62,19.81-10.39-30.07-2.09-59.35-4.13-89.09-6.2C33.85,80.88,35.94,40.89,38.07,.1c6.44,0,11.71-.04,16.99,.02,2.25,.03,4.5,.27,7.55,.47-1.84,33.39-3.64,66.14-5.47,99.4,3.1,.71,5.58,1.6,8.12,1.81,25.86,2.09,51.72,4.3,77.62,5.81,4.01,.23,8.21-2.87,12.11-5.66-29.23-4.25-58.54-4.22-86.52-7.4,1.39-14.34,2.8-27.45,3.89-40.6,1.45-17.56,2.65-35.15,4-53.27h21.67c-1.28,23.35-2.53,46.16-3.85,70.15,4.56,.4,8.38,.83,12.22,1.05,29.24,1.67,58.49,3.07,87.7,5.11,6.8,.48,10.94-3.36,16.23-5.41l-.26-2.25c-34.95-2.33-69.91-4.67-104.65-6.99,1.12-21.32,2.17-41.15,3.24-61.6h21.22c-.5,12.07-1,24.16-1.56,37.66,59.3,3.77,118.03,7.5,176.76,11.23-8.5,10.85-21.82,7.87-33.58,14.23h31.43c.38,3.48,.67,6.16,.96,8.83-1.81,.59-2.72,1.14-3.64,1.14-17.65,.03-35.3-.26-52.94,.1-5.51,.11-11.28,1.15-16.41,3.12-13.84,5.32-27.36,11.45-41.16,20.51h116.84c126.4,107.67,251.47,219.22,376.59,333.72,1.24-12.44,2.17-22.56,3.28-32.66,.44-3.98-2.05-6.05-4.59-8.24-11.84-10.23-23.75-20.38-35.5-30.71-41.99-36.95-83.92-73.92-123.45-113.61-28.87-28.99-59.98-55.75-89.67-83.95-42.97-40.82-85.61-81.99-128.22-123.18-2.82-2.73-5.18-3.96-9.21-4.1-45.58-1.53-91.15-3.33-136.72-5.19-7.94-.32-15.85-1.26-24.1-1.93,1.64-9.22,3.2-17.93,4.93-27.62,6.99,0,13.9-.05,20.82,.05,1.27,.02,3.53,.43,3.64,.99,1.61,8.37,8.22,5.21,12.83,5.3,38.28,.8,76.58,1.28,114.86,1.93,3.69,.06,8.38-1.51,9.28,6.66,.92-4.39,1.37-6.57,2.06-9.85,10.91,10.01,21.17,19.39,31.38,28.82,60.17,55.58,120.45,111.04,180.41,166.84,17.3,16.1,33.12,33.81,50.62,49.67,36.99,33.53,74.66,66.31,112.03,99.42,5.22,4.63,12.55,8.48,14.88,14.3,2.12,5.3-1.17,12.8-2.19,19.31-8.33,53.6-3.44,106.12,12.86,157.71,1.49,4.73,2.92,9.47,4.51,14.63-2.22,.98-4.19,1.86-6.37,2.82,2.19,39.06,5.72,77.99-2.35,116.59-7.94,37.99-24.4,72.86-41.19,108.73h15.73c.19,4.15,.46,7.64,.49,11.13,1.14,116.54,2.35,233.09,3.35,349.63,.58,67.26,.82,134.53,1.21,201.8,.02,3.25,0,6.5,0,10.24h11.31c.05-4.12,.22-8.28,.14-12.44-.97-50.6-2.56-101.21-2.85-151.81-.75-131.53-.65-263.07-1.79-394.6-.12-13.3,3.2-24.27,8.56-35.6,12.54-26.52,23.15-53.72,28.78-82.7,4.09-21.05,5.31-42.23,4.71-63.58-.14-4.9-.02-9.81,.73-15.19,46.16,82.2,113.39,139.38,201.32,173.32-1.8,.14-3.61,.43-5.4,.41-10.32-.16-20.69-1.08-30.95-.42-12.58,.81-23.46-2.66-33.77-9.46-7.13-4.7-14.65-8.83-23.18-13.92-.35,8.01-.65,14.76-.97,22.01h-26.2c0-9.66-1.08-19.04,.26-28.07,1.95-13.14-5.51-19.15-16.23-25.58v53.49h-24.41c-.19-2.51-.56-5.37-.58-8.22-.1-19.31-.64-38.65,.03-57.94,.35-9.91-2.36-17.42-11.16-23.61-1.98,10.08-.76,19.87-.99,29.55-.23,9.98-.06,19.98-.06,29.97,0,9.92,0,19.85,0,30.39h-25.44v-28.31c-.64-.12-1.29-.23-1.93-.35-5.31,12.34-10.74,24.64-15.8,37.08-.95,2.33-.55,5.26-.54,7.91,.37,93.9,.57,187.81,1.22,281.71,.59,84.91,1.67,169.82,2.5,254.73,.1,9.95,.01,19.91,.01,30.66,3.74,.46,6.46,.79,10.59,1.29v-24.77h16.67v279.3c-7.03,2.36-14.35,.87-21.49,1.14-7.28,.27-14.58,.06-22.7,.06-3.18-10.36-6.27-20.41-10.08-32.8-3.54,11.92-6.46,21.78-9.54,32.14h-69.9c-3.77-13.17-7.4-25.84-11.02-38.52-.62-.03-1.24-.06-1.85-.1-3.53,12.78-7.07,25.56-10.7,38.7H197.37c-2.98-10.02-5.97-20.1-8.97-30.18-.51-.1-1.03-.21-1.54-.31-2.89,9.85-5.78,19.7-8.89,30.31h-60.57c-2.85-9.53-5.85-19.59-8.86-29.65-.49-.11-.99-.22-1.48-.33-2.93,9.78-5.87,19.56-9.02,30.05H5.4c-.09-3.88-.26-7.74-.26-11.6-.01-77.59,.02-155.18-.07-232.77,0-4.31,1.55-8.96-3.57-12.51-1.74-1.21-.92-6.12-1.42-10.69,42.13-.98,83.55-.46,125.84-1.28v-30.63H.54v-12.04c41.5-1.09,82.97-.07,125.68-.71,.97-10.15,.68-19.89,.48-30.45H.92v-12.31H124.62c.57-11.04,.54-21.09,.22-32.05H1.02v-12.38H125.09v-32.42H.8v-12.98H124.29v-30.41c-12.92-.49-26.4-.15-39.87-.22-13.99-.07-27.97-.02-41.96-.02-13.6,0-27.21,0-41.76,0-.18-4.08-.33-7.53-.53-12.09H123.76c2.59-10.72,.66-20.61,1.71-31.87-14.2-.14-27.72-.02-41.22-.04-13.99-.02-27.97,0-41.96,0-13.59,0-27.18,0-41.38,0v-12.41H125.5v-31.21H1.01v-12.1H125.37v-30.65c-20.58-1.18-41.41-.19-62.21-.42-20.58-.22-41.17-.05-62.31-.05v-12.91c3.83,0,7.41,0,10.98,0,33.97-.01,67.93,.01,101.9-.08,4.81-.01,9.89,1.26,14.03-3.04,1.04-1.07,3.82-.6,5.79-.62,43.95-.26,87.91-.5,131.86-.71,1.58,0,3.16,.34,5.87,.65v143.56h48.67v-147.02c48.01-.21,94.96-.41,141.91-.61,.31-.56,.62-1.13,.92-1.69-4.42-2.46-6.75-5.62-7.71-10.66-1.55-8.12-8.9-12.09-18.65-11.31-6.93,.55-13.8,1.8-21.14,2.79-4.15-5.09-2.04-11.17-2.96-17.75,13.85-1.98,26.98-4.01,40.04-.54,12.92,3.44,19.61,13.03,22.3,25.66,.61,2.86,.66,5.84,.99,8.99,3.87,.41,7.43,.78,11.97,1.26,2.61,123.92-.7,247.65,3.11,371.74h7.66c.28-61.69-1.87-123.44-2.12-185.2-.25-61.89-1.15-123.77-1.78-186.52,5.27-.54,9.75-1.01,14.8-1.53-2.23-17.31-8.8-31.38-24.69-39.81-9.26-4.92-19.07-7.85-29.56-7.98-12.96-.16-25.92-.04-40.01-.04-.78-5.84-1.6-11.93-2.61-19.5,15.65,.19,30.5-.59,45.33,.98,5.93,.63,11.86,1.69,17.64,3.16,29.85,7.6,48.65,28.78,52.95,59.31,.18,1.28,.32,2.56,.61,4.97h21.7c.14,42.66,.22,84.16,.44,125.66,.22,41.63,.62,83.25,.87,124.87,.24,41.41,.16,82.82,.28,125.3,5.57-2.25,4.3-5.67,4.36-8.21,.5-21.31,1.1-42.61,1.16-63.92,.29-98.57,.31-197.14,.83-295.71,.03-6.45-3.5-11.06-4.76-16.76-3.6-16.37-10.48-31.46-19.71-45.53-11.64-17.75-28.12-27.59-49.03-28.1-21.91-.53-43.87,.76-65.81,1.24-1.65,.04-3.29,0-4.94,0-6.02-5.69-1.27-11.93-2.39-18.39,3.96-.33,6.87-.77,9.78-.78,19.31-.09,38.63-.33,57.94-.07,32.59,.44,57.38,14.78,74.16,42.76,10.36,17.27,17.46,35.73,20.66,56.56,2.32,.43,5.39,1,9.7,1.8,0,62.68,.23,125.23-.06,187.77-.29,62.06-1.11,124.11-1.7,186.17,.93,.13,1.85,.27,2.78,.4,.43-2.18,1.2-4.36,1.25-6.55,.69-29.29,1.56-58.59,1.84-87.89,.86-89.91,1.49-179.81,2.21-269.72,.03-3.27,0-6.54,0-11.04h22.33c-10.83-38.97-28.88-71.45-59.86-96-14.83-11.75-30.82-21.1-49.79-23.9-16.55-2.44-33.22-2.06-49.76,.41-13.11,1.96-26.14,4.42-40,6.79v-19.51c6.83-1.04,13.6-2.24,20.4-3.08,20.44-2.52,40.75-5.52,61.6-3.51,28.29,2.72,52.41,13.86,73.6,32.25,30.6,26.54,50.08,60.05,61.67,98.47,.66,2.2,.09,4.77,.09,7.46,1.88,.08,4.19,.24,6.51,.27,1.29,.01,2.59-.19,4.82-.37-.45-2.45-.64-4.61-1.27-6.63-4.94-15.87-9.12-32.03-15.12-47.49-15.61-40.19-42.76-69.05-84.15-83.81-19.92-7.1-40-11.94-61.27-12.11-21.66-.17-43.21-.06-65.31,6.09-.97-6.47-1.83-12.26-2.85-19.1,8.43-1.33,16.17-3.17,24-3.67,30.62-1.96,61.25-2.6,91.24,5.49,19.67,5.3,38.25,13.42,55.7,23.96,16.87,10.18,29.93,24.29,40.66,40.6,10.47,15.92,18.68,32.97,24.35,51.21,1.05,3.37,2.28,6.68,4.37,9.83,.12-14.35,2.63-28.58-4.1-42.5-5.62-11.64-9.96-23.95-14.15-36.22-11.99-35.12-36.39-56.28-71.92-65.42-7.6-1.95-15.05-4.47-24.16-7.2,5.89-4.67,10.25-8.64,15.14-11.77,1.87-1.2,5.14-1.17,7.47-.55,15.79,4.19,31.01,9.9,45.07,18.38,15.23,9.18,26.69,21.88,34.78,37.64,3.57,6.97,6.91,14.06,11.63,20.87,0-10.14,.16-20.28-.13-30.4-.06-2.11-1.57-4.32-2.8-6.23-7.94-12.28-16-24.5-23.7-36.26,2.77-2.77,6.53-5.01,8.04-8.29,10.95-23.82,22.07-47.6,31.94-71.88,14.57-35.85,17.24-73.59,15.43-111.84-.58-12.25-1.04-24.51-1.63-38.61Zm-374.05-34.14c-.74-4.13-1.7-8.24-2.17-12.4-.43-3.78-.32-7.63-.46-11.64H9.91c2.21,8.84,4.17,16.68,6.16,24.64,3.62,0,5.93,0,8.24,0,91.19,.05,182.38,.11,273.56,.11,2.58,0,5.16-.65,7.74-1-1.01,3.39-2.02,6.79-3.25,10.95H18.89c3.68,9.1,6.87,16.98,10.44,25.82H303.9c-.54,4.12-.89,6.82-1.33,10.18H34.33c3.03,6.14,5.84,11,7.88,16.16,2.53,6.41,6.49,8.7,13.61,8.67,82.74-.26,165.48-.17,249-.17v-18.98c13.43-5.97,26.3-11.69,39.99-17.78-13.96-12.27-26.68-23.45-39.47-34.57Zm-118.94,994.77c.66,.02,1.32,.04,1.98,.07,8.03,26.81,16.06,53.63,23.84,79.61h15.73c2.25-23.56,.09-205.94-2.55-218.49h-17.52v61.19h-14.53v-61.25h-22.66v61.29h-14.23v-61.3h-25.52v61.27h-14.32v-61.22h-24.49v137.43h-14.41v-137.61c-9.36-.8-17.75-1.26-27.12,.8v60.94h-14.02v-61.67h-12.54v219.14h59.08c7.9-26.75,15.76-53.39,23.63-80.02,.58,.04,1.15,.09,1.73,.13,7.99,26.65,15.99,53.3,23.95,79.82h30.45c7.89-26.84,15.72-53.49,23.54-80.13Zm369.08-139.02c-2.55,74,.61,146.64,.46,219.25h13.96c8.67-30.68,17.27-61.15,25.88-91.61,.6,.07,1.21,.13,1.81,.2,9.13,30.42,18.25,60.84,27.37,91.22h39.79c7.82-27.01,15.53-53.62,23.24-80.22,.63,.08,1.25,.17,1.88,.25,7.95,26.68,15.89,53.36,23.73,79.66h12.6v-218.51h-27.87v35.47h-13.88v-36.16c-12.09,.09-22.88-.34-34.01,.44,.9,37.23,1.77,73.01,2.65,108.97h-13.67c-1.04-36.78-2.07-72.88-3.09-108.93h-38.25v41.19h-13.82v-41.22h-28.76ZM107.74,165.92c.32,.78,.64,1.56,.96,2.34,3.25,0,6.5,0,9.75,0,59.58,.12,119.15,.27,178.73,.28,4.84,0,8.77,.75,12.68,4.17,23.8,20.8,48.08,41.06,71.81,61.94,95.72,84.2,194.85,164.29,294.35,243.92,1.67,1.34,3.71,2.23,5.74,3.42,2.82-9.98,.72-17.62-7.37-23.29-1.08-.76-1.96-1.79-2.96-2.68-35.07-31.18-70.17-62.31-105.19-93.54-55.39-49.38-110.69-98.88-166.11-148.23-30.07-26.78-60.22-53.47-90.55-79.95-4.97-4.34-7.49-8.86-6.81-15.44,.35-3.46-.19-7-.31-10.16-1.8-.44-2.43-.73-3.06-.73-40.6,0-81.21,.01-121.81,.08-1.96,0-4.33-.1-5.8,.9-9.74,6.58-19.36,13.36-29.42,23.12,55.38,.51,108.43,.99,162.04,1.48-.19,3.77-.32,6.25-.49,9.42-4.21,0-7.8,.02-11.39,0-51.59-.31-103.17-.68-154.76-.83-3.04,0-6.87,.82-8.98,2.74-7.34,6.66-14.08,13.98-21.05,21.05Zm-51.8,72.66c6.3,0,10.27,0,14.24,0,74.59,.04,149.17,.18,223.76-.07,7.59-.03,13.29,2.04,18.62,7.17,7.19,6.92,14.84,13.36,22.3,20.01,56.43,50.26,112.14,101.38,171.25,148.52,55.69,44.41,111.83,88.26,167.81,132.3,2.4,1.89,4.52,4.79,8.88,4.16,0-5.28-.59-10.34,.12-15.22,1.46-10.05-2.88-16.44-10.51-22.57-44.36-35.67-88.49-71.63-132.48-107.76-34.47-28.31-68.93-56.65-102.82-85.64-42.76-36.57-84.93-73.81-127.38-110.74-1.17-1.02-2.54-1.8-4.32-3.04-.75,2.93-1.28,5.06-2,7.87H71.6c-5.01,8.01-9.72,15.53-15.66,25.02ZM7.29,379.87H302.07v-23.92c-29.79-2.58-282.45-1.61-291.01,1.17-1.2,7.25-2.43,14.68-3.76,22.75ZM50.95,248.41c-3.9,8.14-7.8,16.3-11.98,25.02H302.47c.15-8.63,1.42-16.72-.83-25.02H50.95ZM431.62,1595.66v-219.17c-9.75-.13-18.86-1.07-28.05,.73v218.44h28.05Zm-43.47-218.71h-28.99c-1.63,73.4-.88,146.06,.41,218.78h28.58v-218.78Zm86.23,219.01v-218.81c-10.51-1.51-20.31-1.24-27.38,.72-2.05,19.84-1.2,210.63,1.07,218.09h26.31Zm-129.85-.22v-218.8h-26.92v218.8h26.92ZM78.03,203.43h224.23v-24.51c-3.5-.18-6.42-.45-9.35-.46-24.94-.09-49.87-.16-74.81-.19-37.24-.05-74.48-.08-111.71-.05-3.85,0-7.97-1.03-10.96,2.93-5.35,7.09-10.92,14.01-17.4,22.27Zm224.11,1392.34v-218.93h-23c-1.43,73.23-.97,145.84,.89,218.93h22.11Zm-37.62-.05v-218.64h-23.68c.83,37.02,1.74,73.19,2.43,109.37,.7,36.39-1.08,72.8-.27,109.27h21.52Zm224.78-219.02v218.88h20.52v-218.88h-20.52Zm51.62,219.36v-219.06h-15.53c-2.73,73.47-1.39,146.12-.98,219.06h16.51Zm81.27-613.2c-8.04,.27-6.02,5.35-6.06,8.74-1.48,114.73-2.87,229.47-4.25,344.2-.06,5.31-.01,10.63,.13,15.95,.02,.87,.81,1.71,1.48,3.01,2.8-.22,5.64-.44,8.7-.67v-371.23Zm31.84,375.95c.29-4.91,.59-7.51,.58-10.1-.45-114.81-.92-229.62-1.4-344.44-.02-5.32,.08-10.65-.15-15.97-.07-1.64-1.05-3.23-2.03-6.04-4.07,4.43-2.77,8.56-2.77,12.17,.08,117.47,.24,234.95,.41,352.42,0,2.66-.14,5.39,.42,7.94,.24,1.09,2.12,1.81,4.93,4.02Zm-130.88-2.71c.76-.01,1.53-.03,2.29-.04v-373.69c-2.12,1.04-4.58,1.48-4.88,2.54-.69,2.49-.44,5.26-.42,7.92,.81,118.53,1.63,237.06,2.48,355.6,.02,2.56,.34,5.12,.52,7.68Zm-186.36,.69h127.43v-15.44h-127.43v15.44Zm127.33-84.23c-44.41,.04-87.72-.37-130.93,.12v16.17c44.07-.76,87.39-1.5,130.93-2.25v-14.03Zm-128.77,34.1c.29,5.56,.5,9.44,.71,13.52h128.07v-13.52h-128.78Zm128.65-66.24c-17.96-2.77-122.26-1.46-130.93,1.6v10.46h130.93v-12.06Zm.05-35.53h-127.9v13.47c20.6,1.84,121.03,.87,127.9-1.24v-12.23Zm-323.08,72.3c38.48,.34,75.86,2.55,113.51,1.35v-15.01c-38.01-.49-75.63-.98-113.51-1.47v15.14Zm2.09,58.86h111.4v-12.76c-37.28-.83-74.04-1.65-111.4-2.48v15.24Zm193.72-187.44c17.93,2.45,120.04,2.83,127.22,.47,0-1.86,.12-3.86-.03-5.83-.15-1.88-.58-3.75-.89-5.6h-126.29v10.96Zm1.28-77.5v11.76h124.5v-12.56c-41.66-1.75-82.7,.9-124.5,.8Zm-195.34,229.52c37.38,.5,74.59,3.3,111.53,2.18v-14.32c-37.53-.71-74.3-1.4-111.53-2.11v14.25Zm-1.29-57.8h113.27v-12.95h-113.27v12.95Zm-4.44-90.4h118.2v-13.99c-39.67,.97-78.71,1.92-118.2,2.88v11.11Zm326.7,18.9h-126.93v12.03h126.93v-12.03Zm-322.57,46.33c38.58,.57,76.04,1.12,113.54,1.68v-14.24h-113.54v12.57Zm113.87-44.53c-39.71-.07-78.16-.68-117.21,2.14,.23,4.18,.43,7.68,.67,11.95,39.31-.81,77.75-1.6,116.54-2.4v-11.69Zm207.94-68.13c-42.51-1.58-84.4-1.9-126.38,.12v10.02h126.38v-10.14Zm-209.16-18.44v-11.26h-114.77v11.26h114.77Zm.9,261.02c-21.05-1.97-103.8-1.14-111.98,1.17,.17,3.33,.34,6.79,.54,10.84,37.85-.24,74.59-.07,111.45-.36v-11.65Zm-.12-239.95c-28.73-2.09-105.28-1.15-113.93,1.45,.16,3.33,.33,6.8,.52,10.74,38.46-.83,75.83-1.64,113.87-2.46-.17-3.63-.31-6.43-.47-9.73Zm-114.14-64.27c.29,4.68,.48,7.83,.62,10.09h113.11c-.29-4.84-.5-8.22-.75-12.28-38.04,.74-74.88,1.45-112.99,2.19Zm321.98-3.85h-123.73v9.2h123.73v-9.2Zm-.06-32.87c-41.42-.39-82.35-.03-124.04,.89,.34,4.2,.56,6.98,.76,9.46h123.28v-10.34Zm-319.69,14.14h110.61c.23-2.88,.52-4.52,.45-6.15-.06-1.24-.58-2.47-.81-3.38h-110.24v9.53ZM89.09,161.02c-22.73-1.7-44.82-3.39-66.93-4.93-1.2-.08-2.49,1.12-3.73,1.72,2.67,2.66,5.3,3.75,8.02,4.08,17.11,2.06,34.25,3.84,51.34,5.96,5.34,.66,8.94-.94,11.3-6.83Z"/><path d="M1373.13,270.46c2.86,6.41,4.86,10.89,7.04,15.77h91.59v23.2h-82.74c1.77,6.07,3.1,10.65,4.68,16.07h78.09v24.26h-72.09c.81,4.66,1.45,8.31,2.27,13.01,23.35,.48,46.2,.95,69.72,1.43v22.89c-21.63,2.03-43.37-2.45-65.97-.9,.3,4.4,.56,8.2,.89,12.91,21.97,.83,43.37,1.64,65.25,2.46v21.33c-10.31,0-20.2,.13-30.08-.04-9.65-.17-19.31-.45-28.94-1.06-5.38-.35-9.34,1.34-13.27,5.1-33.3,31.87-72.84,51.95-117.84,61.36-31.54,6.59-63.35,6.89-95.33,3.83-49.67-4.76-94.21-23.12-133.89-52.53-59.53-44.13-94.62-103.92-105.73-176.89-7.76-50.95-2.22-100.9,19.4-148.38,6.76-14.85,14.91-28.85,27.05-43.47-5.92,1.01-9.61,1.48-13.24,2.28-71.91,15.88-132.84,51.22-184.33,103.54-26.32,26.75-49.05,56.08-66.62,89.3-.77,1.46-1.6,2.9-2.51,4.28-.34,.52-.98,.86-2.43,2.08,6.01-18.73,2.04-37.07,3.36-55.14,3.8-52.19,.86-104.43,1.71-156.63,.28-17.31-.17-34.63-.2-51.94,0-2.58,.45-5.16,.73-8.05h22.3c2.2,59.89,1.48,119.54,1.81,180.53,9.2-6.88,13.57-13.86,13.52-24.25-.23-48.28,.09-96.56,.21-144.83,0-3.58,0-7.17,0-11.27h23.57V140.14c12.53-4.79,17-10.69,17.05-21.7,.16-35.63,.27-71.25,.4-106.88,.01-3.28,0-6.57,0-10.32,8.03-1.97,15.46-.95,24.01-.91V107.54q11.65-4.52,11.67-14.91c.03-26.64,.05-53.27,.08-79.91,0-3.63,0-7.27,0-11.97,9.2-1.14,17.91-.79,27.22-.15V83.47c25.25-9.82,49.35-19.2,74.75-29.09-21.02-.51-40.77-.98-60.97-1.47v-19.09c69.03,.65,137.48,1.56,205.94,1.87,68.49,.31,137.02,2,206.23-2.03V.87h25.73V53.97c-5.37,.52-11.18,1.31-17.02,1.62-76.86,4.12-153.77,2.64-230.67,1.92-7.65-.07-15.3-.73-22.95-.94-3.48-.1-3.48,.1-7.05,5.47,4.48,.2,8.24,.44,12,.54,58.19,1.47,113.13,14.97,163.82,44.2,31.95,18.43,60.24,41.56,85.62,68.18,5.35,5.61,10.6,7.61,18.13,7.49,29.96-.45,59.93-.3,89.9-.37,3.25,0,6.49,0,10.27,0v17.52c-31.2,.71-62.3,1.42-94.25,2.15,3.78,8.34,8.33,12.58,17.58,12.25,26.28-.93,52.59-.95,78.88-1.37,2.3-.04,4.59-.34,7.55-.58,2.5-70.26,5-140.32,7.53-211.17h22.52c-.9,77.24-1.8,154.63-2.71,232.98h-109.81c3.69,6.2,6.51,10.93,9.63,16.19h109.24v18.31c-32.36,.69-64.44,1.38-98.31,2.11Z"/><path d="M1463.5,1305.37c.22,3.75,.36,5.99,.57,9.47h-305.12v17.8h19.39c5.21,93.69,11.23,186.23,4.58,279.14-6.67,1.78-109.58,2.38-122.3,.47v-277.78c2.14-.76,4.48-1.58,7.36-2.59v-34.62c7.41-2.36,74.71-3.09,89.36-1.08,.47,2.64,.98,5.45,1.65,9.2h304.51Zm-382.92,157.58v133.64h73.78c2.13-11.3,1.77-126.33-.35-133.64h-73.42Z"/><path d="M697.18,347.81C574.8,231.17,451.77,117.78,327.64,5.57c-1.12-1.01-1.78-2.54-3.69-5.35,12.94,0,24.42-.35,35.85,.25,2.79,.15,5.67,3.1,8.07,5.25,31.44,28.23,63.16,56.17,94.12,84.92,76.8,71.34,153.26,143.04,229.79,214.67,4.59,4.3,8.6,9.22,13.63,14.65-2.36,8.01-5.07,17.18-8.22,27.85Z"/><path d="M1455,1282.05c-2.44-24.1-5.81-47.86-7.11-71.74-5.26-96.78-6.36-193.64-4.88-290.54,.22-14.61,.03-29.23,.03-44.99-3.21,4.64-6.03,8.72-9.52,13.75-1.31-2.74-2.58-4.36-2.85-6.12-4.52-29.86-8.92-59.73-13.44-90.3h17.64c3.29,24.78,6.61,49.7,9.7,73,1.7-22.94,3.52-47.57,5.4-72.85h18.55c-1.8,40.64-4.25,81.33-5.23,122.05-.99,40.93-.93,81.89-.57,122.84,.36,40.61,1.77,81.21,2.55,121.82,.78,40.96,4.32,81.68,10.27,123.09h-20.54Z"/><path d="M718.13,284.24C617.39,190.04,516.66,95.84,414.77,.56c13.44,0,25.88-.27,38.29,.23,2.47,.1,5.01,2.95,7.21,4.87,73.54,64.07,142.86,132.67,214.12,199.18,13.38,12.49,26.77,24.96,40.31,37.27,3.95,3.6,5.95,7.44,5.69,12.99-.43,9.5-.12,19.04-.12,28.56-.72,.19-1.43,.39-2.15,.58Z"/><path d="M1318.93,792.2c20.64-1.76,20.72-1.8,29.64,14.95,28.27,53.05,47.02,109.25,54.43,168.96,5.52,44.42,4.78,88.98,.96,133.53-5.02,58.52-16.17,115.84-33.24,172.67h-21.11c4.02-14.55,8.11-28.55,11.73-42.66,11.18-43.57,18.58-87.77,22.6-132.58,3.31-36.88,4.29-73.77,1.19-110.67-4.3-51.14-17.07-100.23-38-147.07-7.59-16.98-16.54-33.34-24.86-49.99-1-2.01-1.91-4.07-3.34-7.15Z"/><path d="M1384.24,791.8h19.39c40.14,163.38,48.15,326.57,.47,490.49h-20.26c3.58-14.46,7.22-28.57,10.57-42.75,8.27-35,14.54-70.38,17.2-106.26,2.41-32.5,5.21-65.09,5.07-97.63-.13-29.86-3.38-59.77-6.31-89.55-4.87-49.38-13.84-98.12-24.74-146.51-.51-2.26-.81-4.56-1.38-7.8Z"/><path d="M548.36,554.34c7.86,.62,14.4,1.14,22.24,1.76-1.48,8.91-2.65,17.32-4.32,25.63-3.27,16.27-6.18,32.66-10.39,48.7-10.04,38.24-33.16,66.91-66.56,87.45-32.39,19.92-67.53,32.45-105.22,37.6-23.45,3.2-46.98,4.64-70.62,2.2-1.91-.2-3.81-.5-6.19-.82v-19.13c7.7,0,14.94-.38,22.12,.06,53.49,3.32,101.29-14.69,147.08-39.58,31.45-17.1,49.32-44.87,57.8-78.9,4.65-18.68,8-37.68,11.96-56.53,.53-2.54,1.25-5.04,2.1-8.45Z"/><path d="M886.05,20.46V.74h398.51c.19,3.72,.48,6.97,.49,10.21,0,2.91-.3,5.83-.51,9.5h-398.48Z"/><path d="M491.68,.82c10.2,0,20.4-.22,30.59,.16,2.31,.09,4.97,1.81,6.76,3.51,41.5,39.58,87.71,73.46,132.5,109.03,17.97,14.27,36.27,28.14,54.56,42,4.33,3.28,6.53,6.83,6.13,12.53-.54,7.55-.13,15.17-.13,24.05-2.45-1.25-3.92-1.71-5.05-2.61-55.39-43.66-111.03-87-165.95-131.24-19.39-15.62-36.99-33.44-55.38-50.3-1.68-1.54-3.11-3.35-4.66-5.04,.21-.7,.43-1.4,.64-2.1Z"/><path d="M864.82,1333.43h19.7c5.36,92.99,2.52,185.69,3.44,279.11h-20.1c-1.01-92.92-2.02-185.56-3.04-279.11Z"/><path d="M1282.73,1612.86h-19.09c-1.97-93.01-2.26-185.71-.03-279.11h19.13v279.11Z"/><path d="M899.97,1333.6h19.16c.25,2.78,.71,5.64,.73,8.5,.3,42.61,.75,85.22,.73,127.83-.02,42.29-.53,84.58-.82,126.87-.03,4.94,0,9.88,0,15.53h-19.79v-278.73Z"/><path d="M986.87,1612.86h-20.09c.51-7.12,1.12-13.64,1.41-20.17,.75-17.28,1.81-34.57,1.93-51.86,.48-65.59,.65-131.18,.93-196.77,.01-3.26,0-6.52,0-10.39h20.61c.22,2.61,.68,5.44,.65,8.26-.85,75.91-1.64,151.81-2.75,227.71-.21,14.23-1.74,28.44-2.7,43.22Z"/><path d="M951.53,1612.72h-19.07c-.28-93.02-2.5-185.62,2.06-279.02,3.01-.23,5.87-.53,8.73-.64,2.97-.11,5.95-.02,10.27-.02-.66,93.39-1.32,186.25-1.98,279.68Z"/><path d="M1371.83,1333.53h18.49c.31,2.64,.78,4.88,.82,7.12,1.21,66.2,2.71,132.39,3.39,198.6,.23,22.91-1.57,45.85-2.48,68.77-.05,1.29-.45,2.57-.82,4.56h-17.01c-.8-92.9-1.59-185.55-2.39-279.04Z"/><path d="M1338.25,1333.49h19.28c3.69,93.04-.05,185.64,.44,278.94h-19.72v-278.94Z"/><path d="M1458.6,1613.12h-18.93c-.19-4.02-.61-7.62-.48-11.2,.78-21.6,.74-43.29,2.78-64.77,3.27-34.34-.2-68.43-1.34-102.65-1.1-33.19-.24-66.44-.24-100.53h18.49c.15,2.28,.49,5.1,.49,7.93-.01,23.95-.56,47.92,0,71.86,.48,19.93,2.38,39.83,3.4,59.75,.53,10.29,1.02,20.63,.63,30.92-1.37,35.86-3.14,71.7-4.81,108.69Z"/><path d="M499.44,784.25c8.74-5.99,17.24-12.4,26.28-17.92,39.7-24.29,57.31-60.92,57.94-106.06,.43-30.54-1.47-61.12-2.35-91.68-.09-3.24-.33-6.47-.53-10.41h19.88c.46,2.1,1.24,4.25,1.36,6.44,1.25,22.57,2.7,45.13,3.5,67.72,1.09,30.44-1.27,60.39-13.21,89.01-8.7,20.83-21.68,37.91-40.58,50.47-8.85,5.88-17.31,12.36-26.03,18.45-8.57,5.99-19.81,3.47-26.26-6.03Z"/><path d="M820.95,1612.91h-20.88c-4.51-92.82-4.58-185.52-3.66-279.06h19.92c.42,92.56-2.39,185.3,4.61,279.06Z"/><path d="M830.11,1333.32h18.39c5.7,15.49,7.95,245.3,2.63,279.22h-18.52c3.34-93.1,1.58-185.66-2.5-279.22Z"/><path d="M1317.03,1612.85c-2.4,.16-4.98,.49-7.55,.47-3.25-.02-6.5-.32-10.93-.57v-279.14h16.38c4.65,13.48,6.6,256.28,2.1,279.24Z"/><path d="M1408.15,1333.65h17.55c3.6,92.89,2.35,185.76,.85,279.16h-17.88c-.23-.21-.48-.42-.71-.66-.23-.24-.6-.48-.63-.75-.18-1.65-.4-3.31-.4-4.96,.03-90.15,.09-180.3,.17-270.46,0-.58,.51-1.17,1.05-2.33Z"/><path d="M779.36,1612.74h-19.01c-1.33-92.9-.87-185.56,.08-278.97h18.93v278.97Z"/><path d="M1226.53,1333.54h19.16c.41,6.64,.79,12.86,1.17,19.08,2.21,36.49,5.23,72.95,6.36,109.47,.76,24.52-1.11,49.13-1.91,73.7-.71,21.93-1.55,43.85-2.36,65.77-.13,3.58-.37,7.15-.57,11.14h-18.58c0-3.64-.09-6.88,.01-10.1,1.02-30.56,1.41-61.16,3.29-91.66,1.96-31.67-.61-63.1-2.41-94.62-1.56-27.19-2.75-54.41-4.16-82.77Z"/><path d="M1196.85,1333.38h16.04c.34,2.12,.85,4,.9,5.88,1.33,47.25,2.94,94.49,3.77,141.75,.41,23.28-.61,46.59-1.06,69.88-.33,16.98-.8,33.95-1.17,50.92-.07,3.27-.01,6.54-.01,10.6h-19.24c0-3.8-.09-7.37,.01-10.94,.84-27.62,2.33-55.24,2.4-82.86,.08-28.95-1.4-57.89-1.83-86.85-.48-31.62-.54-63.25-.74-94.88,0-.92,.48-1.85,.93-3.51Z"/><path d="M1427.41,586.7v185.82h-21.13c-.7-26.45-1.87-52.92-1.97-79.38-.1-26.21,.87-52.42,1.39-79.56h-42.7c4.25-9.03,7.66-16.83,11.67-24.29,.81-1.5,3.91-2.45,5.97-2.48,15.26-.2,30.52-.11,46.78-.11Z"/><path d="M1219.83,70.94h115.45c.69-23.78,1.36-46.57,2.04-70.09h25.96c.69,31.23-1.46,62.56-1.25,94.62-4.25,.21-7.47,.47-10.7,.5-28.6,.24-57.21,.47-85.81,.57-2.9,.01-6.24-.1-8.64-1.46-12.66-7.18-25.07-14.79-37.57-22.25,.17-.63,.35-1.26,.52-1.89Z"/><path d="M305.07,679.8c-.36-6.78-.73-13.56-1.11-20.63,14.64-2.64,28.33-4.87,41.93-7.6,20.51-4.12,40.67-9.32,60.03-17.61,17.55-7.52,29.64-19.97,36.52-37.44,4.13-10.48,7.31-21.34,10.98-32.01,1.17-3.38,2.56-6.69,4.04-10.52,7.03,2.09,13.3,3.96,20.41,6.07-6.85,33.46-15.19,65.29-45.38,85.75-14.77,10.01-31.13,16.63-48.4,20.32-24.95,5.33-50.15,9.53-75.25,14.16-.9,.17-1.89-.23-3.77-.49Z"/><path d="M1375.53,.57h19.79V134.95c-2.01,.32-4.19,.92-6.39,.97-23.93,.57-47.86,.87-71.78,1.68-6.19,.21-10.65-1.62-14.97-5.95-6.3-6.32-13.25-11.98-21.33-19.18,11.14-2.05,20.92-1.18,30.59-1.39,9.64-.22,19.28-.1,28.92-.12,9.94-.01,19.88,0,30.62,0,3.52-37.08,2.4-73.53,4.56-110.39Z"/><path d="M1425.76,169.66c-4.21,.25-7.11,.57-10.01,.58-22.6,.07-45.21-.18-67.81,.27-6.72,.13-11.31-1.89-15.08-7.28-2.8-4-6.33-7.49-10.53-12.37h82.57c2.57-50.29,2.56-99.95,4.37-150.15h19.05c-.86,56.5-1.7,112.47-2.56,168.95Z"/><path d="M1440.11,588.43h23.26c3.1,61.77,.31,122.75,.94,184.24h-22.98c-5.58-61.19-2.26-122.45-1.22-184.24Z"/><path d="M579.2,.93c12.19,0,24.38-.2,36.56,.18,2.27,.07,4.71,2.18,6.67,3.82,30.84,25.8,61.53,51.75,92.46,77.44,5.5,4.57,8.8,9.16,7.97,16.81-.81,7.54-.18,15.23-.18,24.98-49.59-40.47-97.83-79.6-144.25-120.91,.26-.78,.51-1.56,.77-2.33Z"/><path d="M407.08,782.88c3.37-2.34,6.5-5.2,10.16-6.92,16.24-7.63,32.69-14.8,48.94-22.39,9.93-4.64,19.71-9.6,29.42-14.69,14.21-7.45,25.28-18.27,33.29-32.17,2.82-4.9,5.7-9.78,8.14-14.87,5.05-10.5,12.18-19.55,19.29-28.64,2.07-2.65,4.6-4.67,7.46-2.64,1.6,1.13,2.75,4.54,2.37,6.6-6.39,34.79-19.95,65.85-50.41,86.22-14,9.36-29.61,16.38-44.73,23.99-9.78,4.92-20.07,8.84-29.99,13.5-4.76,2.24-9.27,3.09-14.37,1.17-6.14-2.31-12.45-4.14-18.69-6.18l-.88-2.98Z"/><path d="M1394.38,772.74h-24.5c-.74-36.94-1.46-73.41-2.21-110.9h-33.84c-1.02-5.71,3-8,4.99-11.1,3.58-5.57,6.54-12.99,11.78-15.63,5.64-2.85,13.6-1.2,20.55-1.32,7.63-.13,15.25-.03,23.23-.03v138.99Z"/><path d="M136.25,812.76h-10.56c-.69-4.15-1.32-7.94-2.12-12.78,8.68-.9,16.82-1.7,24.95-2.61,2.35-.26,5.26,1.03,6.3-3.04,.29-1.15,3.85-2,5.93-2.06,7.64-.24,15.3-.07,22.95-.08,71.84-.14,143.68-.28,215.51-.42,3.63,0,7.26,0,11.82,0v12.52c-3.02,.23-5.87,.63-8.73,.64-79.15,.1-158.31,.2-237.46,.12-3.2,0-6.4-1.72-9.85-2.71-.15,1.19-.46,3.74-.87,7.01-6.03,1.17-12.08,2.35-18.16,3.54-.04,.02,.3-.12,.3-.12Z"/><path d="M1301.61,756.47c.28-4.22,.47-7.06,.69-10.4-19.17-.89-37.68-1.75-56.84-2.64,1.08-5.25,5.68-5.88,8.27-8.44,7.71-7.64,16.89-10.7,27.89-10.19,14.18,.65,28.41,.16,43.3,.16v48.19c-46.66-1.09-92.67,3.21-138.98-.16,13.56-6.16,25.44-15.52,41.68-15.27,24.24,.38,48.5-.74,74.01-1.24Z"/><path d="M71.71,664.12c-.79,38.78-1.57,76.6-2.35,114.95h-22v-94.87c-15.93-1.59-30.97-3.1-46.35-4.63v-22.64c23.92,2.44,47.21,4.81,70.7,7.2Z"/><path d="M252.1,969.35c-2.45,4.62-4.25,8.03-6.25,11.8-35.97,.56-71.75-4.85-108.16-.29-1.2-5.2-2.22-9.64-3.54-15.36,4.71-.62,8.83-1.66,12.94-1.63,22.29,.15,44.58,.61,66.87,.88,8.59,.11,17.19,.02,26.21,.02,.24-2.37,.46-4.51,.71-7.02h157.08c.17,3.82,.31,7.04,.51,11.42-9.9,1.07-19.46,.4-28.96,.46-9.99,.06-19.97-.09-29.96-.14-9.65-.04-19.31-.07-28.96-.09-9.99-.02-19.97-.05-29.96-.05-9.64,0-19.28,0-28.54,0Z"/><path d="M205.13,892.45c.97,1.94,2.15,3.89,2.94,5.98,2.11,5.6-.57,11.21-6.54,11.74-6.93,.62-13.8,2.02-20.74,2.49-14.91,1.01-29.84,1.76-44.77,2.34-2.75,.11-5.55-1.07-8.74-1.74-.15,.46-.73,2.3-1.51,4.75H1.28c-.37-2.07-.87-3.93-.99-5.82-.1-1.61,.23-3.26,.48-6.05,3.62-.18,7.11-.49,10.59-.5,34.89-.04,69.78-.15,104.67,.09,6.58,.04,11.93-.5,12.75-8.7,25.81-1.55,50.93-3.06,76.35-4.59Z"/><path d="M1337.95,707.9c-17.65,.99-33.45,1.88-49.25,2.77l-1.05-2.23c4.48-4.59,9.72-8.67,13.29-13.89,7.45-10.88,17.44-14,29.98-13.02,9.21,.72,18.51,.14,28.54,.14v90.99h-23.04c.51-21.43,1.01-42.81,1.53-64.77Z"/><path d="M397.94,834.42v12.2H184.3c-1.23-3.42-2.62-7.28-4.4-12.2h218.04Z"/><path d="M184.91,855.58c1.31,2.74,2.46,4.71,3.21,6.81,2.02,5.62-.47,9.91-6.44,10.55-7.59,.82-15.23,1.21-22.85,1.81-8.94,.7-17.87,1.9-26.82,2-7.51,.09-15.03-1.57-22.54-1.6-32.92-.14-65.84,.02-98.77,.07-3.24,0-6.49,0-10.02,0v-12.99c4.12,0,7.69,0,11.25,0,26.6-.02,53.21-.42,79.81,.08,17.69,.33,35.05-2.34,52.55-3.78,13.53-1.12,27.07-1.98,40.61-2.96Z"/><path d="M201.01,886.81c-1.67-4.41-3.04-8.06-5.02-13.3,67.16,.13,133.06,.04,200.1,2.28,.18,3.53,.36,6.94,.57,11.02H201.01Z"/><path d="M404.4,916.44v12.18H221.54c-.93-2.73-1.89-5.17-2.55-7.69-.32-1.2-.05-2.56-.05-4.48h185.46Z"/><path d="M1014.62,1503.84h21.38c.15,36.24,1.05,71.99-.3,108.24-7.21,2.13-13.94,1.3-21.08,.59v-108.82Z"/><path d="M8.52,779.05v-66.28c-3.05-1.49-5.32-2.61-7.44-3.64v-22.14c11.41,1.13,22.14,2.2,32.58,3.23v88.83H8.52Z"/><path d="M1471.98,545.61v27.99c-29.25-.7-58.1-3.06-88.31-4.98,2.9-8.94,5.4-16.67,8.27-25.54,26.59,.84,53.01,1.67,80.04,2.53Z"/><path d="M975.94,792.11h9.76c.35,14.24,.66,28.15,1.04,42.06,.32,11.62,.18,23.29,1.19,34.86,3.1,35.37,.51,70.41-4.54,105.42-1.55,10.78-1.85,21.74-2.78,33.33h-10.9c1.03-13.28,1.13-25.92,3.12-38.25,5.61-34.69,6.82-69.42,3.53-104.39-.81-8.58-.38-17.29-.41-25.93-.05-15.28-.01-30.56-.01-47.09Z"/><path d="M651.97,.91c8.76,0,16.62,.57,24.37-.14,10-.92,17.89,1.69,24.7,9.38,5.24,5.92,11.62,10.89,17.72,15.99,3.61,3.02,5.13,6.36,4.91,11.15-.39,8.59-.11,17.2-.11,26.24-8.7-2.99-63.54-51.07-71.59-62.62Z"/><path d="M1396.66,527.37c1.85-8.91,3.37-16.26,5.14-24.79,23.3,.66,46.3,1.31,70.04,1.99v27.37c-25.2-1.53-49.57-3.02-75.18-4.57Z"/><path d="M1066.01,1029.62c0-4.77-.05-9.07,.03-13.37,.02-1.25,.43-2.5,.73-4.14h93.31v17.02c-6.74,1.95-81.43,2.53-94.07,.49Z"/><path d="M233.52,941.78c.76,4.87,3.27,10.19,1.8,13.95-2.18,5.6-8.72,3.07-13.46,2.97-29.17-.62-58.33-1.43-87.5-2.2-.62-.02-1.24-.39-2.89-.94-1.03-4.77-2.17-10.07-3.48-16.13,35.25-2.19,69.3-.37,105.54,2.35Z"/><path d="M1159.24,1197.85v17.17c-30.87,.66-61.26,1.3-92.41,1.97v-19.14h92.41Z"/><path d="M.88,949.83H127.48c.4,3.55,.81,7.26,1.32,11.79H.88v-11.79Z"/><path d="M1160.45,1166.64v18.13h-92.93v-18.13h92.93Z"/><path d="M124.13,815.8c.45,4.54,.9,9.09,1.34,13.5-7.83,2.13-111.25,2.63-124.31,.73-.28-1.7-.73-3.57-.84-5.46-.09-1.61,.22-3.25,.45-6.04,3.66-.2,7.13-.56,10.61-.56,34.22-.06,68.45,0,102.67-.17,3.36-.02,6.7-1.27,10.06-1.94l.02-.05Z"/><path d="M1159.03,1280.07h-91.82v-16.62h91.82v16.62Z"/><path d="M1160.91,847.36v16.94h-92.31v-16.94h92.31Z"/><path d="M937.62,946.13h-7.87c-.64-.96-1.28-1.47-1.32-2.02-2.23-29.81-4.45-59.62-6.59-89.44-.91-12.69,.22-25.17,3.38-37.56,1.87-7.32,2.55-14.95,3.84-22.92h8.12c.35,.95,1.29,2.2,1.17,3.34-.87,8.23-2.03,16.44-2.95,24.67-1.11,9.86-3.29,19.79-2.84,29.6,.94,20.56,3.59,41.04,4.94,61.59,.7,10.54,.12,21.16,.12,32.76Z"/><path d="M1067.32,1119.23v-16.8h92.23v16.8h-92.23Z"/><path d="M1067.53,1072.84c30.56-.61,60.91-1.21,91.93-1.83,.29,3.81,.63,6.67,.68,9.54,.05,2.57-.21,5.15-.37,8.43h-92.23v-16.15Z"/><path d="M1160.93,946.96h-93.35c-.24-5.51-.47-10.61-.74-16.79,31.66-1.53,62.56,1.16,94.09,.89v15.9Z"/><path d="M1159.35,1133.19v17.56h-91.88v-15.46c30.58-.7,60.95-1.39,91.88-2.1Z"/><path d="M1159.78,792.89v14.57c-30.56,1.02-60.9,1.35-91.8,.86v-15.42h91.8Z"/><path d="M1035.41,1410.19h-18.22c-2.09-6.91-2.12-64.54,.02-76.6h18.2v76.6Z"/><path d="M1403.67,490.74c1-8.05,1.81-14.55,2.75-22.11,21.73,.79,43.13,1.57,65.21,2.37v22.52c-22.61-.92-44.69-1.83-67.96-2.78Z"/><path d="M1066.94,1246.41v-14.97h92.16c2.07,3.81,.06,9.1,.97,14.97h-93.14Z"/><path d="M1068.33,892.91v-15.99h91.36v15.99h-91.36Z"/><path d="M1067.76,1056.9v-15.37h91.8v15.37h-91.8Z"/><path d="M1068.41,834.2v-14.09h90.85c.22,2.38,.58,4.59,.59,6.79,0,2.26-.33,4.53-.57,7.3h-90.87Z"/><path d="M1068.13,972.25v-14.05h91.19v14.05h-91.19Z"/><path d="M1271.25,1139.64h6.85c.46,.94,1.23,1.79,1.24,2.66,.18,10.25-.09,20.52,.43,30.75,.67,13.23,2.09,26.42,2.95,39.64,1.47,22.46,3.78,44.92,.68,68.01h-9.02c-.15-2.36-.48-4.29-.37-6.19,1.7-27.93-.74-55.62-3.64-83.4-1.71-16.39-.4-33.09-.39-49.65,0-.53,.72-1.07,1.27-1.83Z"/><path d="M1195.35,1083.84v119.9h-9.17c-3.69-39.96-1.96-79.6-1.52-119.9h10.69Z"/><path d="M1160.79,903.8v12.73h-93.31c-.25-4.12-.49-8-.77-12.73h94.08Z"/><path d="M124.11,815.85c4.02-1.02,8.05-2.04,12.11-3.08,.04-.01-.3,.13-.26,.11,9.58-.02,19.12-.02,29.48-.02,2.94,3.67,5,8.1,.27,13.38,7.43,2.48,4.52,9.24,6.94,15.04-14.93,1.54-29.01,3-44.13,4.57-.79-6.15-1.39-11.32-2.14-16.47-.66-4.54-1.49-9.05-2.24-13.58,0,0-.02,.04-.02,.04Z"/><path d="M1407.85,455.72v-19.68c21.08-1.19,41.93,2.23,63.64,2.46v19.58c-21.16-.78-42.16-1.56-63.64-2.35Z"/><path d="M1159.46,986.3v12.14h-91.28c-.18-3.9-.37-7.74-.54-11.48,7.21-2.18,79.65-2.66,91.82-.66Z"/><path d="M881,979.94h7.65c.39,.89,1.12,1.78,1.12,2.67,0,6.63,.78,13.44-.47,19.85-2.13,10.99-1.24,21.79-.48,32.74,1.19,17.23,1.88,34.49,2.72,51.74,.06,1.26-.32,2.54-.6,4.52h-9.18c-.56-1.03-1.1-1.57-1.13-2.15-1.38-22.87-2.73-45.75-4.01-68.62-.17-2.97-.09-6,.27-8.95,1.22-10.19,2.61-20.35,4.1-31.8Z"/><path d="M1239.78,901.45c-4.14-.19-7.01-.32-10.66-.48-1.07-35.95-2.13-71.36-3.2-107.27h10.36c3.05,35.58,3.93,70.96,3.5,107.75Z"/><path d="M843.5,1298.24h-9.1c-3.93-12.2-7.58-92.68-4.81-108.59h8.38c1.84,36.23,3.67,72.16,5.53,108.59Z"/><path d="M926.39,1071.59h9.45c.17,2.05,.38,3.64,.42,5.24,.64,24.6,1.3,49.2,1.86,73.8,.24,10.59,.67,21.21-2.07,31.96h-9.01c-.35-1.3-.92-2.27-.79-3.14,2.73-18.63,.32-37.2-.67-55.78-.92-17.25-.76-34.46,.81-52.09Z"/><path d="M1189.9,792.73c2.13-.23,3.43-.53,4.71-.46,1.27,.06,2.53,.48,3.88,.76,.39,1.14,1.02,2.05,.96,2.92-.64,10.27-1.62,20.53-2.04,30.81-.4,9.58-.82,19.23-.21,28.78,1.06,16.55,2.34,33.04-.45,49.91h-9.07c0-3.29,.07-5.92-.01-8.54-.43-13.28-1.17-26.55-1.27-39.84-.09-11.6,.28-23.21,.9-34.79,.51-9.59,1.67-19.14,2.61-29.54Z"/><path d="M1024.93,795.55h9.92c6.53,36.2,12.83,72.05,7.32,109.2h-8.63c-.45-18.37-.13-36.52-1.55-54.55-1.42-18.03-4.57-35.93-7.07-54.66Z"/><path d="M1283.59,890.77h-9.19c-.51-1.06-1.24-1.9-1.29-2.77-.32-5.98-.47-11.96-.73-17.95-.94-21.92-1.93-43.85-2.84-65.77-.15-3.62-.02-7.24-.02-11.65h10.44c2.23,32.58,5.25,64.88,3.63,98.14Z"/><path d="M1432.45,1216.23c5.18,3.72,9.19,6.44,9.23,11.82,.15,17.91,.06,35.82,.06,53.62-3.17,3.99-6.44-3.33-10.65,.63-2.26,2.13-8.17,.38-13.84,.38,6.08-21.96,6.19-44.31,15.21-66.45Z"/><path d="M875.07,794.35h10.42c-.83,31.21-1.65,61.98-2.5,93.8-2.93,.25-6.05,.51-10.07,.85-2.49-31.86,.79-62.82,2.15-94.65Z"/><path d="M890.38,1298.91c-3.99,.25-6.85,.43-9.56,.6-5.21-34.63-7.78-68.77-2.27-103.7,1.47-.12,3.05-.38,4.63-.35,1.24,.03,2.48,.41,3.97,.68,0,9.93,.68,19.52-.15,28.99-1.38,15.65-1.41,31.05,1.61,46.6,1.68,8.66,1.24,17.72,1.78,27.18Z"/><path d="M1185.57,1073.05v-97.54h9.61v97.54h-9.61Z"/><path d="M839.75,1162.54h-10.07c1.27-32.51-6.81-64.42,.51-96.99,2.74-.13,5.63-.26,8.55-.39,.49,1.32,1.19,2.27,1.1,3.12-2.97,26.51-.05,52.95,.76,79.41,.15,4.88-.54,9.78-.85,14.84Z"/><path d="M1031.54,1200.88c3.7,.18,6.49,.31,10.1,.48,.11,32.37-1.04,64-4.34,96.17h-9.72c1.31-32.06,2.61-63.7,3.96-96.65Z"/><path d="M969.84,1123.84c1.58-32.85,3.14-65.13,4.73-98.2,2.41-.19,5.2-.42,8.71-.7,3.02,33.39-.59,65.85-3.97,98.89h-9.46Z"/><path d="M789.51,1104.49h-8.08c-2.2-30.91-4.39-61.49-6.62-92.78,3.72-.26,6.89-.47,10.77-.74,1.68,31.3,9.2,61.61,3.93,93.51Z"/><path d="M934.11,1298.25h-9.73c-3.58-12.91-2.32-25.8-2.09-38.61,.29-16.88,.78-33.76,1.2-50.64,.04-1.61,.2-3.22,.36-5.51,3.1-.2,5.9-.37,9.22-.59,5.27,31.87-3.07,63.19,1.04,95.33Z"/><path d="M741.76,1097.78h-9.48c.71-15.32,1.66-30.09,2-44.87,.34-14.93,.08-29.88,.08-45.62,3.04-.43,5.81-.83,9.68-1.38,2.5,31.11,1.56,61.33-2.27,91.87Z"/><path d="M1271.56,925.77h9.1v93.2c-2.73,.23-5.24,.44-8.92,.74-3.53-31.27-1.73-62.02-.18-93.95Z"/><path d="M745.72,991.71c-3.11-.17-5.66-.32-9.61-.54,2.8-30.66-7.65-60.75-.64-91.53h10.19c-5.76,30.91,4.34,61.15,.06,92.06Z"/><path d="M1030.16,1092.89c0-14.55-.18-28.14,.05-41.73,.25-14.64,.78-29.28,1.42-43.92,.3-6.96,.53-6.95,8.43-6.87,1.82,6.29,.71,80.62-1.46,92.52h-8.43Z"/><path d="M777.61,796.66c1.88-.16,4.37-.38,7.66-.67,6.01,31.36,4.15,62.5,4.64,94.43-3.22,.29-5.92,.53-9.12,.81-1.07-31.81-2.11-62.85-3.17-94.57Z"/><path d="M1244.41,1210.89h-9.4c-1.57-30.82-3.12-61.45-4.71-92.73,2.81-.3,5.31-.56,8.71-.91,4.2,31.06,4.74,61.79,5.4,93.64Z"/><path d="M1321.74,1067.29c3.07,.3,5.28,.51,8.04,.78,3.32,31.38,5.82,62.35,1.63,93.99h-7.62c-.68-31.47-1.35-62.5-2.05-94.77Z"/><path d="M1230.99,995.66c3.39-.67,5.58-1.11,8.98-1.78,2.4,15.5,2.29,30.63,3.45,45.61,1.15,14.81,1.42,29.69,2.11,45.42-3.65,.18-6.37,.32-9.92,.5-1.55-30.11-3.06-59.46-4.62-89.76Z"/><path d="M832.67,1042.59c-3.76-.17-6.59-.3-9.93-.46-1.93-26.49,1.05-52.07,3.22-78.22h10.07c-1.11,25.93-2.2,51.6-3.36,78.67Z"/><path d="M927.15,967.89c3.71,0,5.37-.13,7,.05,.92,.1,1.77,.72,3.35,1.4,.98,27.99,1.96,56.13,2.91,83.31-1.53,1.44-1.96,2.2-2.46,2.25-2.29,.24-4.59,.28-8.04,.45-.91-29.02-1.82-57.69-2.75-87.46Z"/><path d="M1279.16,1120.47c-3.24,.25-5.77,.45-8.32,.65-.59-1.18-1.4-2.03-1.39-2.88,.09-10.27,.25-20.53,.49-30.8,.38-16.22,.82-32.44,1.26-48.66,.04-1.6,.2-3.2,.35-5.38h9.1c3.33,29.31-1.93,57.86-1.49,87.07Z"/><path d="M790.19,1300.56h-8.69c-1.13-25.31-2.24-50.33-3.34-75.07,.83-.74,1.3-1.51,1.8-1.54,2.27-.13,4.55-.06,7.82-.06,2.31,25.34,7.08,50.43,2.4,76.67Z"/><path d="M982.96,1297.76h-9.89c-2.97-23.9-5.82-47.4-5.26-71.92,3.28-.18,6.05-.33,9.64-.52,1.85,24.26,3.65,47.88,5.52,72.44Z"/><path d="M1038.76,1181.8c-5.77,1.45-8.75-.05-8.85-6.08-.21-12.96-.75-25.91-.96-38.86-.12-7.97,.1-15.95,.23-23.93,.05-2.92,.27-5.84,.44-9.24h9.14v78.1Z"/><path d="M793.71,1196.12h-9.01c-5.53-23.96-1.98-47.57,.14-71.44h8.87v71.44Z"/><path d="M977.03,1143.89v66.2h-11.32c.54-22.1,1.08-43.87,1.61-65.47,2.26-.58,3.18-1,4.11-1.02,1.65-.04,3.3,.16,5.6,.29Z"/><path d="M788.79,986.63c-2.03,.3-3.31,.64-4.59,.64-1.24,0-2.48-.35-3.9-.57,.67-26.52,1.33-52.6,2-79.06h7.92c3.03,26.74,1.67,52.8-1.43,78.99Z"/><path d="M827.78,872.39h10.69c2.68,20.74,1.41,41.5,3.29,62.77h-11.53c-.81-20.64-1.6-41.12-2.45-62.77Z"/><path d="M887.71,1171.6c-1.86,.34-3.1,.72-4.35,.74-1.28,.02-2.57-.31-3.51-.44-2.95-3.08-3.48-37.55-1.26-65.01,1.49-.21,3.06-.54,4.65-.61,1.27-.05,2.56,.22,4.46,.42v64.9Z"/><path d="M823.09,800.82c.8-.25,1.7-.74,2.61-.78,1.62-.07,3.25,.14,4.57,.21,3.07,3.06,4.77,42.76,2.61,57.88-2.64,.15-5.43,.3-8.03,.44-2.71-8.18-3.75-45.7-1.77-57.76Z"/><path d="M1187.3,1212.68c3.57,.17,5.83,.27,9.14,.42,1.43,22.26,2.84,44.27,4.25,66.33-1.65,.55-2.53,1.05-3.44,1.09-1.6,.09-3.21-.1-5.71-.22-2.84-22.28-4.6-44.29-4.23-67.63Z"/><path d="M735.04,824.52h7.37c.66,1.08,1.28,1.63,1.29,2.18,.34,16.62,.24,33.23,4.15,49.6,1.04,4.36,.16,9.18,.16,14.55-2.69,.16-5.17,.31-8.19,.48-2.92-22.05-7.86-43.44-4.77-66.81Z"/><path d="M1041.31,990.5h-8.55c-1.66-21.24-3.28-42.01-4.89-62.69,7.64-2.43,8.89-2.21,9.5,3.22,2.19,19.41,5.58,38.76,3.94,59.48Z"/><path d="M745.1,1252.56h-8.65v-63.71c2.52-.29,5.24-.6,7.25-.83,2.91,2.66,3.42,48.09,1.4,64.54Z"/><path d="M1243.96,1280.22h-8.44v-61.67c8.75-.51,9.24-.48,9.32,5.1,.26,17.94,.18,35.89,.16,53.83,0,.9-.67,1.81-1.05,2.75Z"/><path d="M733.54,1110.31c1.85-.52,2.75-.98,3.65-.98,1.62-.01,3.25,.24,6.05,.49,.75,20.48,1.5,40.85,2.27,61.84-3.18,.38-5.65,.68-9.17,1.11-2.69-21.14-2.09-41.82-2.79-62.45Z"/><path d="M1316.71,909.62h10.03v54.12c-2.47,.25-4.95,.51-8.71,.89-1.87-18.55-1.74-36.52-1.32-55.02Z"/><path d="M1327.37,1054.06c-3.25-.4-5.78-.71-9.19-1.13v-59.77c7.51-2.03,8.98-1.66,9.08,4.21,.29,18.47,.11,36.94,.11,56.69Z"/><path d="M1314.28,1175.79c3.16,.21,5.61,.37,8.54,.56v59.58h-8.54v-60.14Z"/><path d="M1328.56,888.35h-8.85v-56.82c2.71-.12,5.15-.23,8.52-.38,1.24,19.42,2.02,38.18,.33,57.19Z"/><path d="M1231.75,936.17h10.69c.54,16.99,1.06,33.45,1.61,50.47h-10.1c-.74-16.97-1.46-33.44-2.2-50.47Z"/><path d="M889.87,956.08h-9.97c-2.28-16.53-3.92-32.79-3.83-50.34,3.26-.18,6.25-.35,10.05-.57,1.26,17.16,2.47,33.48,3.75,50.91Z"/><path d="M1195.73,969.55c-3.72-.26-6.26-.44-9.72-.68,.67-14.14,1.33-27.83,2.02-42.29,3.14-.19,5.9-.36,10.04-.62,.44,14.8,.18,28.73-2.34,43.59Z"/><path d="M746.31,1268.99v28.08h-9.31v-26.84c.6-.47,1.07-1.16,1.58-1.18,2.23-.12,4.46-.05,7.73-.05Z"/><path class="cls-1" d="M622.19,982.86v371.23c-3.07,.24-5.9,.46-8.7,.67-.66-1.3-1.45-2.15-1.48-3.01-.14-5.31-.2-10.63-.13-15.95,1.38-114.73,2.77-229.47,4.25-344.2,.04-3.4-1.98-8.47,6.06-8.74Z"/><path class="cls-1" d="M654.03,1358.81c-2.81-2.2-4.69-2.93-4.93-4.02-.56-2.55-.42-5.28-.42-7.94-.17-117.47-.34-234.95-.41-352.42,0-3.61-1.3-7.74,2.77-12.17,.98,2.81,1.96,4.41,2.03,6.04,.23,5.32,.13,10.65,.15,15.97,.47,114.81,.95,229.62,1.4,344.44,.01,2.6-.29,5.2-.58,10.1Z"/><path class="cls-1" d="M523.15,1356.1c-.18-2.56-.5-5.12-.52-7.68-.85-118.53-1.67-237.06-2.48-355.6-.02-2.66-.28-5.43,.42-7.92,.29-1.05,2.76-1.5,4.88-2.54v373.69c-.76,.01-1.53,.03-2.29,.04Z"/><path class="cls-1" d="M336.79,1356.8v-15.44h127.43v15.44"/><path class="cls-1" d="M464.13,1272.57v14.03c-43.54,.75-86.86,1.5-130.93,2.25v-16.17c43.21-.49,86.52-.08,130.93-.12Z"/><path class="cls-1" d="M335.36,1306.67h128.78v13.52h-128.07c-.21-4.08-.42-7.96-.71-13.52Z"/><path class="cls-1" d="M464.01,1240.44v12.06h-130.93v-10.46c8.67-3.06,112.96-4.36,130.93-1.6Z"/><path class="cls-1" d="M464.06,1204.91v12.23c-6.87,2.11-107.3,3.08-127.9,1.24v-13.47h127.9Z"/><path class="cls-1" d="M254.49,1263.55v15.01c-37.66,1.2-75.03-1.01-113.51-1.35v-15.14"/><path class="cls-1" d="M336.79,1148.63v-10.96h126.29c.31,1.85,.74,3.71,.89,5.6,.16,1.97,.03,3.97,.03,5.83-7.18,2.36-109.29,1.97-127.22-.47Z"/><path class="cls-1" d="M338.06,1071.13c41.8,.1,82.84-2.56,124.5-.8v12.56h-124.5v-11.76Z"/><path class="cls-1" d="M141.43,1242.86v-12.95h113.27v12.95h-113.27Z"/><path class="cls-1" d="M137,1152.46v-11.11c39.5-.96,78.53-1.91,118.2-2.88v13.99h-118.2Z"/><path class="cls-1" d="M463.69,1171.36v12.03h-126.93v-12.03h126.93Z"/><path class="cls-1" d="M141.12,1217.68v-12.57h113.54v14.24c-37.5-.55-74.96-1.11-113.54-1.68Z"/><path class="cls-1" d="M254.99,1173.15v11.69c-38.79,.8-77.23,1.59-116.54,2.4-.24-4.27-.43-7.77-.67-11.95,39.05-2.82,77.49-2.21,117.21-2.14Z"/><path class="cls-1" d="M462.93,1105.02v10.14h-126.38v-10.02c41.98-2.02,83.87-1.69,126.38-.12Z"/><path class="cls-1" d="M253.77,1086.58h-114.77v-11.26h114.77v11.26Z"/><path class="cls-1" d="M254.55,1107.65c.16,3.3,.29,6.1,.47,9.73-38.04,.82-75.42,1.63-113.87,2.46-.19-3.94-.36-7.41-.52-10.74,8.65-2.6,85.2-3.54,113.93-1.45Z"/><path class="cls-1" d="M140.41,1043.39c38.11-.74,74.94-1.46,112.99-2.19,.25,4.06,.45,7.44,.75,12.28h-113.11c-.14-2.25-.33-5.4-.62-10.09Z"/><path class="cls-1" d="M462.39,1039.53v9.2h-123.73v-9.2h123.73Z"/><path class="cls-1" d="M462.33,1006.67v10.34h-123.28c-.2-2.48-.42-5.25-.76-9.46,41.69-.91,82.62-1.28,124.04-.89Z"/><path class="cls-1" d="M142.64,1020.8v-9.53h110.24c.23,.91,.75,2.13,.81,3.38,.08,1.63-.21,3.27-.45,6.15h-110.61Z"/></g></g></svg>