<?xml version="1.0" encoding="UTF-8"?><svg id="Layer_2" xmlns="http://www.w3.org/2000/svg" viewBox="0 0 36.44 32.41"><defs><style>.cls-1{fill:#231f20;}</style></defs><g id="Your_Design"><g><path class="cls-1" d="M36.23,28.59c.88-1.46-1.35-2.79-2.21-1.31-1.66,2.86-5.55,3.43-7.96,1.15-2.4-2.28-2.05-6.2,.72-8.01,.59-.39,.76-1.18,.37-1.78-.39-.59-1.18-.76-1.78-.37-4.16,2.72-4.69,8.61-1.07,12.02s9.46,2.55,11.94-1.76"/><path class="cls-1" d="M7.13,3.08C4.84,6.15,2.55,9.22,.26,12.28c-.63,.85-.03,2.05,1.03,2.05h7.14c.71,0,1.28-.57,1.28-1.28s-.57-1.28-1.28-1.28h-3.95c-.26,0-.41-.3-.26-.51,2.29-3.07,4.58-6.13,6.87-9.2,.63-.85,.03-2.05-1.03-2.05-1.47,0-2.94,0-4.41,0C4.95,0,4.38,.58,4.38,1.28s.57,1.28,1.28,1.28c.41,0,.81,0,1.22,0,.26,0,.41,.3,.26,.51Z"/><path class="cls-1" d="M17.91,1.29C17.91,.58,17.34,0,16.63,0s-1.28,.57-1.28,1.28V13.05c0,.71,.57,1.28,1.28,1.28s1.28-.57,1.28-1.28V1.29Z"/><path class="cls-1" d="M34.13,.5c-1.57,1.99-3.14,3.98-4.71,5.97-.13,.16-.38,.16-.5,0-1.57-2-3.15-3.99-4.72-5.99-.75-.96-2.29-.42-2.29,.79V13.05c0,.71,.57,1.28,1.28,1.28s1.28-.57,1.28-1.28V5.91c0-.3,.38-.44,.57-.2,1.04,1.32,2.08,2.64,3.12,3.95,.51,.65,1.5,.65,2.01,0,1.04-1.31,2.07-2.63,3.11-3.94,.19-.24,.57-.11,.57,.2v14.56c0,.48-.06,.93,.3,1.36,.26,.32,.54,.45,.95,.46,.4,.01,.68-.1,.96-.4,.34-.36,.35-.74,.35-1.18V1.3c0-1.22-1.54-1.75-2.29-.79Z"/><path class="cls-1" d="M17.06,27.83c2.16-1.03,3.33-3.42,2.8-5.75-.53-2.34-2.6-4-5-4-.71,0-1.28,.57-1.28,1.28s.57,1.28,1.28,1.28c1.41,0,2.56,1.14,2.56,2.56s-1.14,2.56-2.56,2.56c-.95,0-1.57,1-1.15,1.86,.68,1.36,1.37,2.72,2.05,4.09,.32,.63,1.09,.89,1.72,.57s.89-1.08,.58-1.72c-.38-.77-.77-1.53-1.15-2.3-.08-.16-.01-.36,.15-.43Z"/><path class="cls-1" d="M4.2,22.79c.12-.24,.45-.24,.57,0,1.49,2.97,2.97,5.94,4.46,8.9,.32,.63,1.09,.89,1.72,.57,.63-.32,.89-1.09,.57-1.72-1.96-3.92-3.93-7.84-5.89-11.76-.47-.94-1.82-.94-2.29,0-1.07,2.13-2.13,4.26-3.2,6.39-.32,.63-.06,1.4,.57,1.72,.63,.32,1.4,.06,1.72-.57,.59-1.18,1.18-2.35,1.77-3.53Z"/></g></g></svg>